<mxfile host="65bd71144e">
    <diagram name="Page-1" id="HX30L7F6jkHV02Z6mfOf">
        <mxGraphModel dx="746" dy="1048" grid="0" gridSize="10" guides="1" tooltips="1" connect="1" arrows="1" fold="1" page="0" pageScale="1" pageWidth="827" pageHeight="1169" background="none" math="0" shadow="0">
            <root>
                <mxCell id="0"/>
                <mxCell id="1" parent="0"/>
                <mxCell id="QcWYKSokRIfXgIpz2wRb-9" style="edgeStyle=orthogonalEdgeStyle;rounded=0;orthogonalLoop=1;jettySize=auto;html=1;entryX=0;entryY=0.5;entryDx=0;entryDy=0;endArrow=none;endFill=0;" parent="1" source="QcWYKSokRIfXgIpz2wRb-1" target="QcWYKSokRIfXgIpz2wRb-2" edge="1">
                    <mxGeometry relative="1" as="geometry">
                        <Array as="points">
                            <mxPoint x="115" y="150"/>
                        </Array>
                    </mxGeometry>
                </mxCell>
                <mxCell id="QcWYKSokRIfXgIpz2wRb-11" style="edgeStyle=orthogonalEdgeStyle;rounded=0;orthogonalLoop=1;jettySize=auto;html=1;entryX=0;entryY=0.5;entryDx=0;entryDy=0;endArrow=none;endFill=0;" parent="1" source="QcWYKSokRIfXgIpz2wRb-1" target="QcWYKSokRIfXgIpz2wRb-3" edge="1">
                    <mxGeometry relative="1" as="geometry">
                        <Array as="points">
                            <mxPoint x="190" y="300"/>
                            <mxPoint x="190" y="460"/>
                        </Array>
                    </mxGeometry>
                </mxCell>
                <mxCell id="QcWYKSokRIfXgIpz2wRb-12" style="edgeStyle=orthogonalEdgeStyle;rounded=0;orthogonalLoop=1;jettySize=auto;html=1;entryX=0;entryY=0.5;entryDx=0;entryDy=0;endArrow=none;endFill=0;" parent="1" source="QcWYKSokRIfXgIpz2wRb-1" target="QcWYKSokRIfXgIpz2wRb-5" edge="1">
                    <mxGeometry relative="1" as="geometry">
                        <Array as="points">
                            <mxPoint x="115" y="585"/>
                            <mxPoint x="110" y="585"/>
                        </Array>
                    </mxGeometry>
                </mxCell>
                <mxCell id="QcWYKSokRIfXgIpz2wRb-1" value="&lt;div&gt;User&lt;/div&gt;" style="shape=umlActor;verticalLabelPosition=bottom;verticalAlign=top;html=1;outlineConnect=0;rounded=0;" parent="1" vertex="1">
                    <mxGeometry x="100" y="240" width="30" height="60" as="geometry"/>
                </mxCell>
                <mxCell id="QcWYKSokRIfXgIpz2wRb-13" style="edgeStyle=orthogonalEdgeStyle;rounded=0;orthogonalLoop=1;jettySize=auto;html=1;entryX=0;entryY=0.5;entryDx=0;entryDy=0;endArrow=none;endFill=0;startArrow=classic;startFill=1;dashed=1;exitX=1;exitY=0;exitDx=0;exitDy=0;" parent="1" source="QcWYKSokRIfXgIpz2wRb-2" target="QcWYKSokRIfXgIpz2wRb-6" edge="1">
                    <mxGeometry relative="1" as="geometry">
                        <Array as="points">
                            <mxPoint x="352" y="93"/>
                            <mxPoint x="459" y="93"/>
                            <mxPoint x="459" y="52"/>
                            <mxPoint x="530" y="52"/>
                            <mxPoint x="530" y="63"/>
                        </Array>
                    </mxGeometry>
                </mxCell>
                <mxCell id="QcWYKSokRIfXgIpz2wRb-14" value="&amp;lt;&amp;lt;extend&amp;gt;&amp;gt;" style="edgeLabel;html=1;align=center;verticalAlign=middle;resizable=0;points=[];rounded=0;" parent="QcWYKSokRIfXgIpz2wRb-13" vertex="1" connectable="0">
                    <mxGeometry x="0.1" y="2" relative="1" as="geometry">
                        <mxPoint x="22" y="172" as="offset"/>
                    </mxGeometry>
                </mxCell>
                <mxCell id="9" style="edgeStyle=none;html=1;dashed=1;entryX=0.5;entryY=0;entryDx=0;entryDy=0;" parent="1" source="QcWYKSokRIfXgIpz2wRb-2" target="12" edge="1">
                    <mxGeometry relative="1" as="geometry">
                        <Array as="points">
                            <mxPoint x="418" y="-45"/>
                            <mxPoint x="943" y="112"/>
                        </Array>
                    </mxGeometry>
                </mxCell>
                <mxCell id="QcWYKSokRIfXgIpz2wRb-2" value="&lt;div&gt;Create route&lt;/div&gt;" style="ellipse;whiteSpace=wrap;html=1;rounded=0;" parent="1" vertex="1">
                    <mxGeometry x="250" y="110" width="120" height="80" as="geometry"/>
                </mxCell>
                <mxCell id="QcWYKSokRIfXgIpz2wRb-33" style="edgeStyle=orthogonalEdgeStyle;rounded=0;orthogonalLoop=1;jettySize=auto;html=1;dashed=1;" parent="1" source="QcWYKSokRIfXgIpz2wRb-3" target="QcWYKSokRIfXgIpz2wRb-30" edge="1">
                    <mxGeometry relative="1" as="geometry"/>
                </mxCell>
                <mxCell id="14" style="edgeStyle=none;html=1;endArrow=classic;endFill=1;dashed=1;" parent="1" source="QcWYKSokRIfXgIpz2wRb-3" target="12" edge="1">
                    <mxGeometry relative="1" as="geometry">
                        <Array as="points">
                            <mxPoint x="541" y="663"/>
                            <mxPoint x="835" y="659"/>
                        </Array>
                    </mxGeometry>
                </mxCell>
                <mxCell id="QcWYKSokRIfXgIpz2wRb-3" value="View TAF/METAR" style="ellipse;whiteSpace=wrap;html=1;rounded=0;" parent="1" vertex="1">
                    <mxGeometry x="250" y="420" width="120" height="80" as="geometry"/>
                </mxCell>
                <mxCell id="QcWYKSokRIfXgIpz2wRb-36" style="edgeStyle=orthogonalEdgeStyle;rounded=0;orthogonalLoop=1;jettySize=auto;html=1;entryX=1;entryY=0.5;entryDx=0;entryDy=0;dashed=1;" parent="1" source="QcWYKSokRIfXgIpz2wRb-4" target="QcWYKSokRIfXgIpz2wRb-26" edge="1">
                    <mxGeometry relative="1" as="geometry">
                        <Array as="points">
                            <mxPoint x="680" y="360"/>
                            <mxPoint x="680" y="540"/>
                            <mxPoint x="670" y="540"/>
                        </Array>
                    </mxGeometry>
                </mxCell>
                <mxCell id="QcWYKSokRIfXgIpz2wRb-4" value="Save stop as favorite" style="ellipse;whiteSpace=wrap;html=1;rounded=0;" parent="1" vertex="1">
                    <mxGeometry x="280" y="290" width="120" height="80" as="geometry"/>
                </mxCell>
                <mxCell id="7" style="edgeStyle=none;html=1;dashed=1;entryX=0.5;entryY=1;entryDx=0;entryDy=0;" parent="1" source="QcWYKSokRIfXgIpz2wRb-5" target="12" edge="1">
                    <mxGeometry relative="1" as="geometry">
                        <Array as="points">
                            <mxPoint x="852" y="686"/>
                        </Array>
                    </mxGeometry>
                </mxCell>
                <mxCell id="QcWYKSokRIfXgIpz2wRb-5" value="View SigChart" style="ellipse;whiteSpace=wrap;html=1;rounded=0;" parent="1" vertex="1">
                    <mxGeometry x="110" y="640" width="120" height="80" as="geometry"/>
                </mxCell>
                <mxCell id="2" style="edgeStyle=none;html=1;entryX=0.5;entryY=1;entryDx=0;entryDy=0;dashed=1;rounded=0;" parent="1" source="QcWYKSokRIfXgIpz2wRb-6" target="QcWYKSokRIfXgIpz2wRb-24" edge="1">
                    <mxGeometry relative="1" as="geometry">
                        <Array as="points">
                            <mxPoint x="810" y="150"/>
                            <mxPoint x="810" y="640"/>
                            <mxPoint x="550" y="640"/>
                            <mxPoint x="280" y="640"/>
                        </Array>
                    </mxGeometry>
                </mxCell>
                <mxCell id="20" style="edgeStyle=none;html=1;dashed=1;" parent="1" source="QcWYKSokRIfXgIpz2wRb-6" target="12" edge="1">
                    <mxGeometry relative="1" as="geometry">
                        <Array as="points">
                            <mxPoint x="874" y="139"/>
                        </Array>
                    </mxGeometry>
                </mxCell>
                <mxCell id="QcWYKSokRIfXgIpz2wRb-6" value="View route in map" style="ellipse;whiteSpace=wrap;html=1;rounded=0;" parent="1" vertex="1">
                    <mxGeometry x="528" y="18" width="120" height="80" as="geometry"/>
                </mxCell>
                <mxCell id="QcWYKSokRIfXgIpz2wRb-10" style="edgeStyle=orthogonalEdgeStyle;rounded=0;orthogonalLoop=1;jettySize=auto;html=1;entryX=0.008;entryY=0.413;entryDx=0;entryDy=0;entryPerimeter=0;endArrow=none;endFill=0;" parent="1" source="QcWYKSokRIfXgIpz2wRb-1" target="QcWYKSokRIfXgIpz2wRb-4" edge="1">
                    <mxGeometry relative="1" as="geometry">
                        <Array as="points">
                            <mxPoint x="160" y="273"/>
                            <mxPoint x="160" y="273"/>
                        </Array>
                    </mxGeometry>
                </mxCell>
                <mxCell id="QcWYKSokRIfXgIpz2wRb-15" value="Rearrange route" style="ellipse;whiteSpace=wrap;html=1;rounded=0;" parent="1" vertex="1">
                    <mxGeometry x="530" y="260" width="120" height="80" as="geometry"/>
                </mxCell>
                <mxCell id="QcWYKSokRIfXgIpz2wRb-16" style="edgeStyle=orthogonalEdgeStyle;rounded=0;orthogonalLoop=1;jettySize=auto;html=1;entryX=0.917;entryY=0.875;entryDx=0;entryDy=0;entryPerimeter=0;dashed=1;" parent="1" source="QcWYKSokRIfXgIpz2wRb-15" target="QcWYKSokRIfXgIpz2wRb-2" edge="1">
                    <mxGeometry relative="1" as="geometry">
                        <Array as="points">
                            <mxPoint x="450" y="300"/>
                            <mxPoint x="450" y="180"/>
                        </Array>
                    </mxGeometry>
                </mxCell>
                <mxCell id="QcWYKSokRIfXgIpz2wRb-17" value="&amp;lt;&amp;lt;extend&amp;gt;&amp;gt;" style="edgeLabel;html=1;align=center;verticalAlign=middle;resizable=0;points=[];rounded=0;" parent="1" vertex="1" connectable="0">
                    <mxGeometry x="414" y="110" as="geometry">
                        <mxPoint x="-1" y="-1" as="offset"/>
                    </mxGeometry>
                </mxCell>
                <mxCell id="QcWYKSokRIfXgIpz2wRb-19" style="edgeStyle=orthogonalEdgeStyle;rounded=0;orthogonalLoop=1;jettySize=auto;html=1;entryX=0.575;entryY=1.025;entryDx=0;entryDy=0;entryPerimeter=0;dashed=1;" parent="1" source="QcWYKSokRIfXgIpz2wRb-4" target="QcWYKSokRIfXgIpz2wRb-2" edge="1">
                    <mxGeometry relative="1" as="geometry"/>
                </mxCell>
                <mxCell id="QcWYKSokRIfXgIpz2wRb-21" value="&amp;lt;&amp;lt;extend&amp;gt;&amp;gt;" style="edgeLabel;html=1;align=center;verticalAlign=middle;resizable=0;points=[];rounded=0;" parent="1" vertex="1" connectable="0">
                    <mxGeometry x="440" y="240" as="geometry">
                        <mxPoint x="-77" y="-12" as="offset"/>
                    </mxGeometry>
                </mxCell>
                <mxCell id="QcWYKSokRIfXgIpz2wRb-22" style="edgeStyle=orthogonalEdgeStyle;rounded=0;orthogonalLoop=1;jettySize=auto;html=1;entryX=0.233;entryY=0.925;entryDx=0;entryDy=0;entryPerimeter=0;dashed=1;" parent="1" source="QcWYKSokRIfXgIpz2wRb-3" target="QcWYKSokRIfXgIpz2wRb-2" edge="1">
                    <mxGeometry relative="1" as="geometry">
                        <Array as="points">
                            <mxPoint x="310" y="410"/>
                            <mxPoint x="240" y="410"/>
                            <mxPoint x="240" y="200"/>
                            <mxPoint x="278" y="200"/>
                        </Array>
                    </mxGeometry>
                </mxCell>
                <mxCell id="QcWYKSokRIfXgIpz2wRb-23" value="&amp;lt;&amp;lt;extend&amp;gt;&amp;gt;" style="edgeLabel;html=1;align=center;verticalAlign=middle;resizable=0;points=[];rounded=0;" parent="1" vertex="1" connectable="0">
                    <mxGeometry x="350" y="400" as="geometry">
                        <mxPoint x="-77" y="-12" as="offset"/>
                    </mxGeometry>
                </mxCell>
                <mxCell id="QcWYKSokRIfXgIpz2wRb-25" style="edgeStyle=orthogonalEdgeStyle;rounded=0;orthogonalLoop=1;jettySize=auto;html=1;endArrow=none;endFill=0;" parent="1" source="QcWYKSokRIfXgIpz2wRb-24" target="QcWYKSokRIfXgIpz2wRb-1" edge="1">
                    <mxGeometry relative="1" as="geometry"/>
                </mxCell>
                <mxCell id="QcWYKSokRIfXgIpz2wRb-24" value="View map" style="ellipse;whiteSpace=wrap;html=1;rounded=0;" parent="1" vertex="1">
                    <mxGeometry x="220" y="540" width="120" height="80" as="geometry"/>
                </mxCell>
                <mxCell id="QcWYKSokRIfXgIpz2wRb-27" style="edgeStyle=orthogonalEdgeStyle;rounded=0;orthogonalLoop=1;jettySize=auto;html=1;endArrow=classic;endFill=1;dashed=1;" parent="1" source="QcWYKSokRIfXgIpz2wRb-26" target="QcWYKSokRIfXgIpz2wRb-24" edge="1">
                    <mxGeometry relative="1" as="geometry"/>
                </mxCell>
                <mxCell id="QcWYKSokRIfXgIpz2wRb-42" style="edgeStyle=orthogonalEdgeStyle;rounded=0;orthogonalLoop=1;jettySize=auto;html=1;entryX=0.658;entryY=0.975;entryDx=0;entryDy=0;entryPerimeter=0;startArrow=classic;startFill=1;endArrow=none;endFill=0;dashed=1;" parent="1" source="QcWYKSokRIfXgIpz2wRb-26" target="QcWYKSokRIfXgIpz2wRb-39" edge="1">
                    <mxGeometry relative="1" as="geometry">
                        <mxPoint x="730" y="280" as="targetPoint"/>
                        <Array as="points">
                            <mxPoint x="750" y="580"/>
                            <mxPoint x="750" y="400"/>
                            <mxPoint x="729" y="400"/>
                        </Array>
                    </mxGeometry>
                </mxCell>
                <mxCell id="16" style="edgeStyle=none;html=1;entryX=0.1;entryY=0.888;entryDx=0;entryDy=0;entryPerimeter=0;dashed=1;endArrow=classic;endFill=1;" parent="1" source="QcWYKSokRIfXgIpz2wRb-26" target="12" edge="1">
                    <mxGeometry relative="1" as="geometry"/>
                </mxCell>
                <mxCell id="QcWYKSokRIfXgIpz2wRb-26" value="View location in map" style="ellipse;whiteSpace=wrap;html=1;rounded=0;" parent="1" vertex="1">
                    <mxGeometry x="550" y="540" width="120" height="80" as="geometry"/>
                </mxCell>
                <mxCell id="QcWYKSokRIfXgIpz2wRb-28" value="&amp;lt;&amp;lt;extend&amp;gt;&amp;gt;" style="edgeLabel;html=1;align=center;verticalAlign=middle;resizable=0;points=[];rounded=0;" parent="1" vertex="1" connectable="0">
                    <mxGeometry x="440" y="400" as="geometry">
                        <mxPoint x="22" y="107" as="offset"/>
                    </mxGeometry>
                </mxCell>
                <mxCell id="QcWYKSokRIfXgIpz2wRb-31" style="edgeStyle=orthogonalEdgeStyle;rounded=0;orthogonalLoop=1;jettySize=auto;html=1;entryX=1;entryY=0;entryDx=0;entryDy=0;dashed=1;" parent="1" source="QcWYKSokRIfXgIpz2wRb-30" target="QcWYKSokRIfXgIpz2wRb-24" edge="1">
                    <mxGeometry relative="1" as="geometry">
                        <Array as="points">
                            <mxPoint x="560" y="530"/>
                            <mxPoint x="322" y="530"/>
                        </Array>
                    </mxGeometry>
                </mxCell>
                <mxCell id="17" style="edgeStyle=none;html=1;entryX=0.104;entryY=0.444;entryDx=0;entryDy=0;entryPerimeter=0;dashed=1;endArrow=classic;endFill=1;" parent="1" source="QcWYKSokRIfXgIpz2wRb-30" target="12" edge="1">
                    <mxGeometry relative="1" as="geometry"/>
                </mxCell>
                <mxCell id="QcWYKSokRIfXgIpz2wRb-30" value="View airport in map" style="ellipse;whiteSpace=wrap;html=1;rounded=0;" parent="1" vertex="1">
                    <mxGeometry x="500" y="420" width="120" height="80" as="geometry"/>
                </mxCell>
                <mxCell id="QcWYKSokRIfXgIpz2wRb-32" value="&amp;lt;&amp;lt;extend&amp;gt;&amp;gt;" style="edgeLabel;html=1;align=center;verticalAlign=middle;resizable=0;points=[];rounded=0;" parent="1" vertex="1" connectable="0">
                    <mxGeometry x="420" y="340" as="geometry">
                        <mxPoint x="22" y="107" as="offset"/>
                    </mxGeometry>
                </mxCell>
                <mxCell id="QcWYKSokRIfXgIpz2wRb-34" value="&amp;lt;&amp;lt;extend&amp;gt;&amp;gt;" style="edgeLabel;html=1;align=center;verticalAlign=middle;resizable=0;points=[];rounded=0;" parent="1" vertex="1" connectable="0">
                    <mxGeometry x="460" y="280" as="geometry">
                        <mxPoint x="22" y="107" as="offset"/>
                    </mxGeometry>
                </mxCell>
                <mxCell id="QcWYKSokRIfXgIpz2wRb-35" style="edgeStyle=orthogonalEdgeStyle;rounded=0;orthogonalLoop=1;jettySize=auto;html=1;entryX=0.25;entryY=0;entryDx=0;entryDy=0;entryPerimeter=0;dashed=1;" parent="1" source="QcWYKSokRIfXgIpz2wRb-4" target="QcWYKSokRIfXgIpz2wRb-30" edge="1">
                    <mxGeometry relative="1" as="geometry">
                        <Array as="points">
                            <mxPoint x="340" y="400"/>
                            <mxPoint x="530" y="400"/>
                        </Array>
                    </mxGeometry>
                </mxCell>
                <mxCell id="QcWYKSokRIfXgIpz2wRb-37" value="&amp;lt;&amp;lt;extend&amp;gt;&amp;gt;" style="edgeLabel;html=1;align=center;verticalAlign=middle;resizable=0;points=[];rounded=0;" parent="1" vertex="1" connectable="0">
                    <mxGeometry x="630" y="270" as="geometry">
                        <mxPoint x="22" y="107" as="offset"/>
                    </mxGeometry>
                </mxCell>
                <mxCell id="QcWYKSokRIfXgIpz2wRb-38" value="&amp;lt;&amp;lt;extend&amp;gt;&amp;gt;" style="edgeLabel;html=1;align=center;verticalAlign=middle;resizable=0;points=[];rounded=0;" parent="1" vertex="1" connectable="0">
                    <mxGeometry x="500" y="490" as="geometry">
                        <mxPoint x="22" y="107" as="offset"/>
                    </mxGeometry>
                </mxCell>
                <mxCell id="QcWYKSokRIfXgIpz2wRb-43" style="edgeStyle=orthogonalEdgeStyle;rounded=0;orthogonalLoop=1;jettySize=auto;html=1;entryX=1;entryY=0.5;entryDx=0;entryDy=0;dashed=1;" parent="1" source="QcWYKSokRIfXgIpz2wRb-39" target="QcWYKSokRIfXgIpz2wRb-30" edge="1">
                    <mxGeometry relative="1" as="geometry">
                        <Array as="points">
                            <mxPoint x="690" y="340"/>
                            <mxPoint x="700" y="340"/>
                            <mxPoint x="700" y="460"/>
                        </Array>
                    </mxGeometry>
                </mxCell>
                <mxCell id="26" style="edgeStyle=none;html=1;endArrow=classic;endFill=1;dashed=1;" parent="1" source="QcWYKSokRIfXgIpz2wRb-39" target="12" edge="1">
                    <mxGeometry relative="1" as="geometry">
                        <Array as="points"/>
                    </mxGeometry>
                </mxCell>
                <mxCell id="QcWYKSokRIfXgIpz2wRb-39" value="Add stop to route" style="ellipse;whiteSpace=wrap;html=1;rounded=0;" parent="1" vertex="1">
                    <mxGeometry x="650" y="180" width="120" height="80" as="geometry"/>
                </mxCell>
                <mxCell id="QcWYKSokRIfXgIpz2wRb-40" style="edgeStyle=orthogonalEdgeStyle;rounded=0;orthogonalLoop=1;jettySize=auto;html=1;entryX=0.917;entryY=0.5;entryDx=0;entryDy=0;entryPerimeter=0;dashed=1;" parent="1" source="QcWYKSokRIfXgIpz2wRb-39" target="QcWYKSokRIfXgIpz2wRb-2" edge="1">
                    <mxGeometry relative="1" as="geometry"/>
                </mxCell>
                <mxCell id="QcWYKSokRIfXgIpz2wRb-41" value="&amp;lt;&amp;lt;extend&amp;gt;&amp;gt;" style="edgeLabel;html=1;align=center;verticalAlign=middle;resizable=0;points=[];rounded=0;" parent="1" vertex="1" connectable="0">
                    <mxGeometry x="550" y="210" as="geometry"/>
                </mxCell>
                <mxCell id="QcWYKSokRIfXgIpz2wRb-44" value="&amp;lt;&amp;lt;extend&amp;gt;&amp;gt;" style="edgeLabel;html=1;align=center;verticalAlign=middle;resizable=0;points=[];rounded=0;" parent="1" vertex="1" connectable="0">
                    <mxGeometry x="733" y="235" as="geometry">
                        <mxPoint x="22" y="107" as="offset"/>
                    </mxGeometry>
                </mxCell>
                <mxCell id="QcWYKSokRIfXgIpz2wRb-45" value="&amp;lt;&amp;lt;extend&amp;gt;&amp;gt;" style="edgeLabel;html=1;align=center;verticalAlign=middle;resizable=0;points=[];rounded=0;" parent="1" vertex="1" connectable="0">
                    <mxGeometry x="630" y="340" as="geometry">
                        <mxPoint x="22" y="107" as="offset"/>
                    </mxGeometry>
                </mxCell>
                <mxCell id="3" value="&amp;lt;&amp;lt;include&amp;gt;&amp;gt;" style="text;html=1;align=center;verticalAlign=middle;resizable=0;points=[];autosize=1;strokeColor=none;fillColor=none;rounded=0;" parent="1" vertex="1">
                    <mxGeometry x="370" y="610" width="90" height="30" as="geometry"/>
                </mxCell>
                <mxCell id="13" style="edgeStyle=none;html=1;endArrow=none;endFill=0;exitX=0.5;exitY=0.5;exitDx=0;exitDy=0;exitPerimeter=0;" parent="1" source="4" target="12" edge="1">
                    <mxGeometry relative="1" as="geometry"/>
                </mxCell>
                <mxCell id="4" value="IFI proxy" style="shape=umlActor;verticalLabelPosition=bottom;verticalAlign=top;html=1;outlineConnect=0;" parent="1" vertex="1">
                    <mxGeometry x="1089" y="428" width="30" height="60" as="geometry"/>
                </mxCell>
                <mxCell id="8" value="&amp;lt;&amp;lt;include&amp;gt;&amp;gt;" style="text;html=1;align=center;verticalAlign=middle;resizable=0;points=[];autosize=1;strokeColor=none;fillColor=none;rounded=0;" parent="1" vertex="1">
                    <mxGeometry x="543" y="693" width="90" height="30" as="geometry"/>
                </mxCell>
                <mxCell id="10" value="&amp;lt;&amp;lt;include&amp;gt;&amp;gt;" style="text;html=1;align=center;verticalAlign=middle;resizable=0;points=[];autosize=1;strokeColor=none;fillColor=none;rounded=0;" parent="1" vertex="1">
                    <mxGeometry x="715" y="25" width="90" height="30" as="geometry"/>
                </mxCell>
                <mxCell id="12" value="Fetch data from API" style="ellipse;whiteSpace=wrap;html=1;rounded=0;" parent="1" vertex="1">
                    <mxGeometry x="890" y="320" width="120" height="80" as="geometry"/>
                </mxCell>
                <mxCell id="15" value="&amp;lt;&amp;lt;include&amp;gt;&amp;gt;" style="text;html=1;align=center;verticalAlign=middle;resizable=0;points=[];autosize=1;strokeColor=none;fillColor=none;rounded=0;" parent="1" vertex="1">
                    <mxGeometry x="817" y="433" width="90" height="30" as="geometry"/>
                </mxCell>
                <mxCell id="18" value="&amp;lt;&amp;lt;include&amp;gt;&amp;gt;" style="text;html=1;align=center;verticalAlign=middle;resizable=0;points=[];autosize=1;strokeColor=none;fillColor=none;rounded=0;" parent="1" vertex="1">
                    <mxGeometry x="827" y="470" width="90" height="30" as="geometry"/>
                </mxCell>
                <mxCell id="19" value="&amp;lt;&amp;lt;include&amp;gt;&amp;gt;" style="text;html=1;align=center;verticalAlign=middle;resizable=0;points=[];autosize=1;strokeColor=none;fillColor=none;rounded=0;" parent="1" vertex="1">
                    <mxGeometry x="817" y="320" width="90" height="30" as="geometry"/>
                </mxCell>
                <mxCell id="21" value="&amp;lt;&amp;lt;include&amp;gt;&amp;gt;" style="text;html=1;align=center;verticalAlign=middle;resizable=0;points=[];autosize=1;strokeColor=none;fillColor=none;rounded=0;" parent="1" vertex="1">
                    <mxGeometry x="822" y="180" width="90" height="30" as="geometry"/>
                </mxCell>
                <mxCell id="24" style="edgeStyle=none;html=1;endArrow=none;endFill=0;exitX=0.5;exitY=0.5;exitDx=0;exitDy=0;exitPerimeter=0;" parent="1" source="22" target="12" edge="1">
                    <mxGeometry relative="1" as="geometry"/>
                </mxCell>
                <mxCell id="22" value="MET" style="shape=umlActor;verticalLabelPosition=bottom;verticalAlign=top;html=1;outlineConnect=0;" parent="1" vertex="1">
                    <mxGeometry x="1089" y="270" width="30" height="60" as="geometry"/>
                </mxCell>
                <mxCell id="27" value="&amp;lt;&amp;lt;include&amp;gt;&amp;gt;" style="text;html=1;align=center;verticalAlign=middle;resizable=0;points=[];autosize=1;strokeColor=none;fillColor=none;rounded=0;" parent="1" vertex="1">
                    <mxGeometry x="830" y="260" width="90" height="30" as="geometry"/>
                </mxCell>
                <mxCell id="29" style="edgeStyle=none;html=1;entryX=0.954;entryY=0.3;entryDx=0;entryDy=0;dashed=1;entryPerimeter=0;" edge="1" parent="1" source="28" target="QcWYKSokRIfXgIpz2wRb-2">
                    <mxGeometry relative="1" as="geometry">
                        <Array as="points"/>
                    </mxGeometry>
                </mxCell>
                <mxCell id="28" value="Remove stop from route" style="ellipse;whiteSpace=wrap;html=1;rounded=0;" vertex="1" parent="1">
                    <mxGeometry x="559" y="114" width="120" height="80" as="geometry"/>
                </mxCell>
                <mxCell id="30" value="&amp;lt;&amp;lt;extend&amp;gt;&amp;gt;" style="edgeLabel;html=1;align=center;verticalAlign=middle;resizable=0;points=[];rounded=0;" vertex="1" connectable="0" parent="1">
                    <mxGeometry x="498" y="95" as="geometry">
                        <mxPoint x="22" y="38" as="offset"/>
                    </mxGeometry>
                </mxCell>
            </root>
        </mxGraphModel>
    </diagram>
</mxfile>